<svg width="52" height="52" viewBox="0 0 52 52" fill="none" xmlns="http://www.w3.org/2000/svg">
<path d="M26 3C13.2983 3 3 13.302 3 26C3 38.7054 13.2983 49 26 49C38.7017 49 49 38.7054 49 26C49 13.302 38.7017 3 26 3ZM26 13.2016C28.1512 13.2016 29.8952 14.9455 29.8952 17.0968C29.8952 19.248 28.1512 20.9919 26 20.9919C23.8488 20.9919 22.1048 19.248 22.1048 17.0968C22.1048 14.9455 23.8488 13.2016 26 13.2016ZM31.1935 36.7581C31.1935 37.3727 30.6952 37.871 30.0806 37.871H21.9194C21.3048 37.871 20.8065 37.3727 20.8065 36.7581V34.5323C20.8065 33.9177 21.3048 33.4194 21.9194 33.4194H23.0323V27.4839H21.9194C21.3048 27.4839 20.8065 26.9856 20.8065 26.371V24.1452C20.8065 23.5306 21.3048 23.0323 21.9194 23.0323H27.8548C28.4694 23.0323 28.9677 23.5306 28.9677 24.1452V33.4194H30.0806C30.6952 33.4194 31.1935 33.9177 31.1935 34.5323V36.7581Z" fill="black"/>
</svg>
