<svg width="89" height="80" viewBox="0 0 89 80" fill="none" xmlns="http://www.w3.org/2000/svg">
<path d="M55.425 47.4994H33.5987C33.3375 47.4994 33.1237 47.7807 33.1237 48.1244L33.1178 51.8746C33.1178 52.2184 33.3316 52.4996 33.5928 52.4996H55.425C55.6862 52.4996 55.9 52.2184 55.9 51.8746V48.1244C55.9 47.7807 55.6862 47.4994 55.425 47.4994ZM55.425 54.9998H33.5809C33.3197 54.9998 33.1059 55.281 33.1059 55.6248L33.1 59.375C33.1 59.7187 33.3137 60 33.575 60H55.425C55.6862 60 55.9 59.7187 55.9 59.375V55.6248C55.9 55.281 55.6862 54.9998 55.425 54.9998ZM55.425 39.999H33.6106C33.3494 39.999 33.1356 40.2803 33.1356 40.6241L33.1297 44.3742C33.1297 44.718 33.3434 44.9993 33.6047 44.9993H55.425C55.6862 44.9993 55.9 44.718 55.9 44.3742V40.6241C55.9 40.2803 55.6862 39.999 55.425 39.999ZM61.7484 29.1391L45.5925 20.2871C45.2452 20.0976 44.873 20 44.497 20C44.1211 20 43.7488 20.0976 43.4016 20.2871L27.2516 29.1391C26.1947 29.7251 25.5 31.0845 25.5 32.6002V59.375C25.5 59.7187 25.7137 60 25.975 60H30.725C30.9862 60 31.2 59.7187 31.2 59.375V39.999C31.2 38.624 32.0669 37.4989 33.1356 37.4989H55.8644C56.9331 37.4989 57.8 38.624 57.8 39.999V59.375C57.8 59.7187 58.0137 60 58.275 60H63.025C63.2863 60 63.5 59.7187 63.5 59.375V32.6002C63.5 31.0845 62.8053 29.7251 61.7484 29.1391Z" fill="#AC2626"/>
</svg>
