<svg width="360" height="100" viewBox="0 0 360 100" fill="none" xmlns="http://www.w3.org/2000/svg">
<g clip-path="url(#clip0_211_537)">
<rect width="360" height="100" fill="white"/>
<rect width="360" height="4" fill="#D9D9D9"/>
<rect width="98" height="4" fill="url(#paint0_radial_211_537)"/>
<path d="M237.425 57.4994H215.599C215.337 57.4994 215.124 57.7807 215.124 58.1244L215.118 61.8746C215.118 62.2184 215.332 62.4996 215.593 62.4996H237.425C237.686 62.4996 237.9 62.2184 237.9 61.8746V58.1244C237.9 57.7807 237.686 57.4994 237.425 57.4994ZM237.425 64.9998H215.581C215.32 64.9998 215.106 65.281 215.106 65.6248L215.1 69.375C215.1 69.7187 215.314 70 215.575 70H237.425C237.686 70 237.9 69.7187 237.9 69.375V65.6248C237.9 65.281 237.686 64.9998 237.425 64.9998ZM237.425 49.999H215.611C215.349 49.999 215.136 50.2803 215.136 50.6241L215.13 54.3742C215.13 54.718 215.343 54.9993 215.605 54.9993H237.425C237.686 54.9993 237.9 54.718 237.9 54.3742V50.6241C237.9 50.2803 237.686 49.999 237.425 49.999ZM243.748 39.1391L227.592 30.2871C227.245 30.0976 226.873 30 226.497 30C226.121 30 225.749 30.0976 225.402 30.2871L209.252 39.1391C208.195 39.7251 207.5 41.0845 207.5 42.6002V69.375C207.5 69.7187 207.714 70 207.975 70H212.725C212.986 70 213.2 69.7187 213.2 69.375V49.999C213.2 48.624 214.067 47.4989 215.136 47.4989H237.864C238.933 47.4989 239.8 48.624 239.8 49.999V69.375C239.8 69.7187 240.014 70 240.275 70H245.025C245.286 70 245.5 69.7187 245.5 69.375V42.6002C245.5 41.0845 244.805 39.7251 243.748 39.1391Z" fill="#393939" fill-opacity="0.223529"/>
<path d="M315.5 50C321.497 50 326.357 45.5234 326.357 40C326.357 34.4766 321.497 30 315.5 30C309.503 30 304.643 34.4766 304.643 40C304.643 45.5234 309.503 50 315.5 50ZM323.1 52.5H321.683C319.8 53.2969 317.705 53.75 315.5 53.75C313.295 53.75 311.208 53.2969 309.317 52.5H307.9C301.606 52.5 296.5 57.2031 296.5 63V66.25C296.5 68.3203 298.324 70 300.571 70H330.429C332.676 70 334.5 68.3203 334.5 66.25V63C334.5 57.2031 329.394 52.5 323.1 52.5Z" fill="#393939" fill-opacity="0.223529"/>
<path d="M155.701 57.617C155.537 57.4384 155.376 57.2598 155.218 57.0875C153.042 54.7116 151.726 53.2777 151.726 46.5518C151.726 43.0696 150.804 40.2125 148.986 38.0696C147.645 36.4866 145.832 35.2857 143.444 34.3982C143.413 34.3828 143.385 34.3625 143.363 34.3384C142.503 31.7402 140.152 30 137.5 30C134.848 30 132.498 31.7402 131.639 34.3357C131.616 34.359 131.589 34.3786 131.559 34.3938C125.984 36.4661 123.275 40.442 123.275 46.5491C123.275 53.2777 121.961 54.7116 119.784 57.0848C119.626 57.2571 119.464 57.4321 119.3 57.6143C118.876 58.076 118.608 58.6377 118.526 59.233C118.445 59.8283 118.554 60.4322 118.841 60.9732C119.451 62.1339 120.751 62.8545 122.235 62.8545H152.776C154.254 62.8545 155.545 62.1348 156.157 60.9795C156.445 60.4383 156.555 59.8339 156.474 59.238C156.393 58.642 156.125 58.0794 155.701 57.617ZM137.5 70C138.929 69.999 140.331 69.6487 141.557 68.9865C142.783 68.3242 143.788 67.3746 144.465 66.2384C144.497 66.1839 144.513 66.123 144.511 66.0614C144.509 65.9998 144.489 65.9397 144.454 65.887C144.419 65.8342 144.369 65.7906 144.31 65.7604C144.25 65.7301 144.183 65.7142 144.115 65.7143H130.887C130.819 65.7141 130.752 65.7298 130.692 65.76C130.633 65.7902 130.583 65.8338 130.548 65.8866C130.512 65.9394 130.493 65.9995 130.491 66.0612C130.489 66.1228 130.505 66.1839 130.536 66.2384C131.213 67.3745 132.218 68.324 133.444 68.9862C134.67 69.6485 136.072 69.9988 137.5 70Z" fill="#D3D3D3"/>
<path d="M48.5 20L29.5 33.3333V60H41.375V44.4444H55.625V60H67.5V33.3333L48.5 20Z" fill="#AC2626"/>
</g>
<defs>
<radialGradient id="paint0_radial_211_537" cx="0" cy="0" r="1" gradientUnits="userSpaceOnUse" gradientTransform="translate(51.45 1.99999) rotate(90) scale(44.5 51.45)">
<stop offset="0.57" stop-color="#AC2626"/>
<stop offset="1" stop-color="#D9D9D9"/>
</radialGradient>
<clipPath id="clip0_211_537">
<rect width="360" height="100" fill="white"/>
</clipPath>
</defs>
</svg>
