<svg width="89" height="80" viewBox="0 0 89 80" fill="none" xmlns="http://www.w3.org/2000/svg">
<path d="M62.7011 47.617C62.537 47.4384 62.3758 47.2598 62.2176 47.0875C60.0424 44.7116 58.7264 43.2777 58.7264 36.5518C58.7264 33.0696 57.8039 30.2125 55.9856 28.0696C54.6448 26.4866 52.8324 25.2857 50.4436 24.3982C50.4129 24.3828 50.3854 24.3625 50.3625 24.3384C49.5033 21.7402 47.1521 20 44.5002 20C41.8484 20 39.4982 21.7402 38.6389 24.3357C38.616 24.359 38.589 24.3786 38.5588 24.3938C32.9843 26.4661 30.2751 30.442 30.2751 36.5491C30.2751 43.2777 28.9611 44.7116 26.7838 47.0848C26.6256 47.2571 26.4645 47.4321 26.3003 47.6143C25.8764 48.076 25.6077 48.6377 25.5263 49.233C25.4448 49.8283 25.5539 50.4322 25.8406 50.9732C26.4506 52.1339 27.7508 52.8545 29.2349 52.8545H59.7764C61.2536 52.8545 62.5449 52.1348 63.157 50.9795C63.4449 50.4383 63.555 49.8339 63.4742 49.238C63.3934 48.642 63.1251 48.0794 62.7011 47.617ZM44.5002 60C45.929 59.999 47.3309 59.6487 48.557 58.9865C49.7832 58.3242 50.7881 57.3746 51.465 56.2384C51.4969 56.1839 51.5126 56.123 51.5107 56.0614C51.5088 55.9998 51.4893 55.9397 51.4541 55.887C51.4188 55.8342 51.3691 55.7906 51.3097 55.7604C51.2503 55.7301 51.1832 55.7142 51.115 55.7143H37.8875C37.8192 55.7141 37.752 55.7298 37.6924 55.76C37.6329 55.7902 37.583 55.8338 37.5477 55.8866C37.5123 55.9394 37.4927 55.9995 37.4908 56.0612C37.4888 56.1228 37.5046 56.1839 37.5365 56.2384C38.2133 57.3745 39.218 58.324 40.444 58.9862C41.67 59.6485 43.0716 59.9988 44.5002 60Z" fill="#AC2626"/>
</svg>
