<svg width="87" height="80" viewBox="0 0 87 80" fill="none" xmlns="http://www.w3.org/2000/svg">
<path d="M44.5 40C50.4969 40 55.3571 35.5234 55.3571 30C55.3571 24.4766 50.4969 20 44.5 20C38.5031 20 33.6429 24.4766 33.6429 30C33.6429 35.5234 38.5031 40 44.5 40ZM52.1 42.5H50.6835C48.8004 43.2969 46.7054 43.75 44.5 43.75C42.2946 43.75 40.208 43.2969 38.3165 42.5H36.9C30.6062 42.5 25.5 47.2031 25.5 53V56.25C25.5 58.3203 27.3237 60 29.5714 60H59.4286C61.6763 60 63.5 58.3203 63.5 56.25V53C63.5 47.2031 58.3937 42.5 52.1 42.5Z" fill="#AC2626"/>
</svg>
