<svg width="22" height="8" viewBox="0 0 22 8" fill="none" xmlns="http://www.w3.org/2000/svg">
<path d="M3.77789 7L2.11789 4.15H1.01789V7H0.107891V0.0299997H2.35789C2.88456 0.0299997 3.32789 0.12 3.68789 0.3C4.05456 0.48 4.32789 0.723333 4.50789 1.03C4.68789 1.33667 4.77789 1.68667 4.77789 2.08C4.77789 2.56 4.63789 2.98333 4.35789 3.35C4.08456 3.71667 3.67122 3.96 3.11789 4.08L4.86789 7H3.77789ZM1.01789 3.42H2.35789C2.85122 3.42 3.22122 3.3 3.46789 3.06C3.71456 2.81333 3.83789 2.48667 3.83789 2.08C3.83789 1.66667 3.71456 1.34667 3.46789 1.12C3.22789 0.893333 2.85789 0.78 2.35789 0.78H1.01789V3.42ZM11.1919 4.05C11.1919 4.22333 11.1819 4.40667 11.1619 4.6H6.78188C6.81521 5.14 6.99854 5.56333 7.33188 5.87C7.67188 6.17 8.08188 6.32 8.56188 6.32C8.95521 6.32 9.28188 6.23 9.54188 6.05C9.80854 5.86333 9.99521 5.61667 10.1019 5.31H11.0819C10.9352 5.83667 10.6419 6.26667 10.2019 6.6C9.76188 6.92667 9.21521 7.09 8.56188 7.09C8.04188 7.09 7.57521 6.97333 7.16188 6.74C6.75521 6.50667 6.43521 6.17667 6.20188 5.75C5.96854 5.31667 5.85188 4.81667 5.85188 4.25C5.85188 3.68333 5.96521 3.18667 6.19188 2.76C6.41854 2.33333 6.73521 2.00667 7.14188 1.78C7.55521 1.54667 8.02854 1.43 8.56188 1.43C9.08188 1.43 9.54188 1.54333 9.94188 1.77C10.3419 1.99667 10.6485 2.31 10.8619 2.71C11.0819 3.10333 11.1919 3.55 11.1919 4.05ZM10.2519 3.86C10.2519 3.51333 10.1752 3.21667 10.0219 2.97C9.86854 2.71667 9.65854 2.52667 9.39188 2.4C9.13188 2.26667 8.84188 2.2 8.52188 2.2C8.06188 2.2 7.66854 2.34667 7.34188 2.64C7.02188 2.93333 6.83854 3.34 6.79188 3.86H10.2519ZM15.063 1.42C15.7297 1.42 16.2697 1.62333 16.683 2.03C17.0964 2.43 17.303 3.01 17.303 3.77V7H16.403V3.9C16.403 3.35333 16.2664 2.93667 15.993 2.65C15.7197 2.35667 15.3464 2.21 14.873 2.21C14.393 2.21 14.0097 2.36 13.723 2.66C13.443 2.96 13.303 3.39667 13.303 3.97V7H12.393V1.52H13.303V2.3C13.483 2.02 13.7264 1.80333 14.033 1.65C14.3464 1.49667 14.6897 1.42 15.063 1.42ZM19.8995 2.27V5.5C19.8995 5.76667 19.9562 5.95667 20.0695 6.07C20.1829 6.17667 20.3795 6.23 20.6595 6.23H21.3295V7H20.5095C20.0029 7 19.6229 6.88333 19.3695 6.65C19.1162 6.41667 18.9895 6.03333 18.9895 5.5V2.27H18.2795V1.52H18.9895V0.14H19.8995V1.52H21.3295V2.27H19.8995Z" fill="black"/>
</svg>
