<svg width="27" height="26" viewBox="0 0 27 26" fill="none" xmlns="http://www.w3.org/2000/svg">
<path d="M4.56416 14.1401C4.32739 14.2151 4.11225 14.3414 3.93576 14.5091C3.75928 14.6767 3.62631 14.8811 3.54737 15.106L0.586426 23.5442L0.822036 23.768L5.48852 19.3351C5.45536 19.213 5.40965 19.0951 5.40965 18.9629C5.40965 18.1197 6.12954 17.4358 7.01722 17.4358C7.9049 17.4358 8.62479 18.1197 8.62479 18.9629C8.62479 19.8062 7.9049 20.49 7.01722 20.49C6.87806 20.49 6.75398 20.4466 6.62537 20.4151L1.95889 24.848L2.194 25.0713L11.0768 22.2586C11.3137 22.1837 11.5288 22.0574 11.7053 21.8897C11.8818 21.7221 12.0148 21.5177 12.0936 21.2927L13.755 17.2807L8.78756 12.562L4.56416 14.1401ZM19.1363 1.98915L9.93747 11.5092L14.8531 16.1788L24.8748 7.44043C29.1409 3.85794 22.8779 -2.03191 19.1363 1.98915Z" fill="#838383"/>
</svg>
