<svg width="46" height="46" viewBox="0 0 46 46" fill="none" xmlns="http://www.w3.org/2000/svg">
<path d="M45.2812 23C45.2812 35.3083 35.3047 45.2812 23 45.2812C10.6953 45.2812 0.71875 35.3083 0.71875 23C0.71875 10.6989 10.6953 0.71875 23 0.71875C35.3047 0.71875 45.2812 10.6989 45.2812 23ZM23.5979 8.08594C18.7017 8.08594 15.5789 10.1485 13.1267 13.8142C12.809 14.2891 12.9153 14.9296 13.3706 15.2749L16.4881 17.6387C16.9558 17.9933 17.622 17.9089 17.9854 17.448C19.5903 15.4123 20.6908 14.2319 23.1337 14.2319C24.9691 14.2319 27.2394 15.4131 27.2394 17.1929C27.2394 18.5385 26.1286 19.2294 24.3164 20.2455C22.2029 21.4303 19.4062 22.9049 19.4062 26.5938V26.9531C19.4062 27.5485 19.889 28.0312 20.4844 28.0312H25.5156C26.111 28.0312 26.5938 27.5485 26.5938 26.9531V26.8334C26.5938 24.2762 34.0675 24.1698 34.0675 17.25C34.0675 12.0389 28.662 8.08594 23.5979 8.08594ZM23 30.3672C20.7211 30.3672 18.8672 32.2211 18.8672 34.5C18.8672 36.7788 20.7211 38.6328 23 38.6328C25.2789 38.6328 27.1328 36.7788 27.1328 34.5C27.1328 32.2211 25.2789 30.3672 23 30.3672Z" fill="black"/>
</svg>
