<svg width="34" height="44" viewBox="0 0 34 44" fill="none" xmlns="http://www.w3.org/2000/svg">
<path d="M29.375 5.5H22.5C22.5 2.46641 20.0336 0 17 0C13.9664 0 11.5 2.46641 11.5 5.5H4.625C2.34766 5.5 0.5 7.34766 0.5 9.625V39.875C0.5 42.1523 2.34766 44 4.625 44H29.375C31.6523 44 33.5 42.1523 33.5 39.875V9.625C33.5 7.34766 31.6523 5.5 29.375 5.5ZM17 3.4375C18.143 3.4375 19.0625 4.35703 19.0625 5.5C19.0625 6.64297 18.143 7.5625 17 7.5625C15.857 7.5625 14.9375 6.64297 14.9375 5.5C14.9375 4.35703 15.857 3.4375 17 3.4375ZM27.4156 23.3578L15.1266 35.5438C14.7227 35.9477 14.0695 35.9391 13.6656 35.5352L6.56719 28.3766C6.16328 27.9727 6.17187 27.3195 6.57578 26.9156L9.01641 24.4922C9.42031 24.0883 10.0734 24.0969 10.4773 24.5008L14.4305 28.4883L23.5398 19.4477C23.9438 19.0438 24.5969 19.0523 25.0008 19.4562L27.4242 21.8969C27.8281 22.3094 27.8195 22.9539 27.4156 23.3578Z" fill="black"/>
</svg>
