<svg width="27" height="20" viewBox="0 0 27 20" fill="none" xmlns="http://www.w3.org/2000/svg">
<path d="M24.7991 0.675399C22.3521 0.807324 17.4883 1.28751 14.4857 3.0335C14.2785 3.15397 14.161 3.36819 14.161 3.59217V19.0274C14.161 19.5173 14.725 19.827 15.2006 19.5996C18.2898 18.1226 22.7575 17.7196 24.9666 17.6093C25.7208 17.5715 26.3071 16.9972 26.3071 16.3087V1.97768C26.3076 1.22643 25.6217 0.631283 24.7991 0.675399ZM12.4079 3.0335C9.40574 1.28751 4.54195 0.807748 2.09486 0.675399C1.27232 0.631283 0.586426 1.22643 0.586426 1.97768V16.3091C0.586426 16.998 1.17274 17.5724 1.92696 17.6097C4.13693 17.72 8.60687 18.1234 11.6961 19.6013C12.1703 19.8282 12.7325 19.519 12.7325 19.0303V3.58453C12.7325 3.36013 12.6155 3.1544 12.4079 3.0335Z" fill="#838383"/>
</svg>
