<svg width="26" height="25" viewBox="0 0 26 25" fill="none" xmlns="http://www.w3.org/2000/svg">
<path d="M13.0727 0.666626C6.0381 0.666626 0.586426 5.5505 0.586426 12.1471C0.586426 15.5974 2.07896 18.5791 4.5084 20.6388C4.92788 20.9971 4.84147 21.2047 4.9128 23.4176C4.91842 23.5726 4.96388 23.724 5.0452 23.8584C5.12653 23.9929 5.24126 24.1065 5.37939 24.1891C5.51751 24.2718 5.67484 24.3212 5.83764 24.3328C6.00044 24.3445 6.16378 24.3181 6.3134 24.2561C8.97142 23.1442 9.00558 23.0564 9.4562 23.1728C17.157 25.1862 25.5038 20.5047 25.5038 12.1471C25.5038 5.5505 20.1079 0.666626 13.0727 0.666626ZM20.5701 9.5014L16.9028 15.0166C16.7643 15.224 16.5822 15.402 16.3679 15.5394C16.1537 15.6768 15.9118 15.7707 15.6576 15.8152C15.4033 15.8597 15.1421 15.8538 14.8904 15.798C14.6386 15.7421 14.4017 15.6374 14.1945 15.4905L11.2768 13.416C11.1463 13.3231 10.9877 13.2729 10.8247 13.2729C10.6616 13.2729 10.503 13.3231 10.3725 13.416L6.43548 16.2526C5.91 16.6311 5.22176 16.0331 5.57593 15.5048L9.2432 9.98959C9.38164 9.78215 9.5637 9.60411 9.77797 9.46665C9.99224 9.32919 10.2341 9.23527 10.4884 9.19077C10.7427 9.14628 11.0039 9.15218 11.2556 9.20809C11.5074 9.26401 11.7443 9.36874 11.9515 9.51571L14.8682 11.5897C14.9986 11.6826 15.1573 11.7329 15.3203 11.7329C15.4834 11.7329 15.642 11.6826 15.7725 11.5897L19.7115 8.75598C20.236 8.37516 20.9242 8.97264 20.5701 9.5014Z" fill="#838383"/>
</svg>
