<svg width="25" height="25" viewBox="0 0 25 25" fill="none" xmlns="http://www.w3.org/2000/svg">
<path d="M24.193 15.6535L22.0529 14.4795C22.2689 13.3723 22.2689 12.2366 22.0529 11.1294L24.193 9.95544C24.4392 9.82182 24.5497 9.54503 24.4693 9.28734C23.9117 7.58843 22.9622 6.05179 21.7214 4.77284C21.5305 4.57718 21.219 4.52945 20.9779 4.66308L18.8378 5.83704C17.9386 5.10212 16.9037 4.53423 15.7834 4.16199V1.81884C15.7834 1.5516 15.5875 1.31776 15.3112 1.2605C13.4675 0.869177 11.5786 0.888266 9.82534 1.2605C9.54904 1.31776 9.35312 1.5516 9.35312 1.81884V4.16677C8.23786 4.54377 7.20299 5.11166 6.29873 5.84181L4.16367 4.66785C3.91751 4.53423 3.61107 4.57718 3.42017 4.77761C2.17932 6.05179 1.22985 7.58843 0.672225 9.29211C0.586822 9.54981 0.702367 9.82659 0.948526 9.96022L3.08861 11.1342C2.87259 12.2413 2.87259 13.3771 3.08861 14.4843L0.948526 15.6582C0.702367 15.7918 0.591846 16.0686 0.672225 16.3263C1.22985 18.0252 2.17932 19.5619 3.42017 20.8408C3.61107 21.0365 3.92253 21.0842 4.16367 20.9506L6.30375 19.7766C7.20299 20.5115 8.23786 21.0794 9.35814 21.4517V23.7996C9.35814 24.0668 9.55406 24.3007 9.83036 24.3579C11.674 24.7493 13.5629 24.7302 15.3162 24.3579C15.5925 24.3007 15.7884 24.0668 15.7884 23.7996V21.4517C16.9037 21.0747 17.9386 20.5068 18.8428 19.7766L20.9829 20.9506C21.2291 21.0842 21.5355 21.0413 21.7264 20.8408C22.9672 19.5667 23.9167 18.03 24.4743 16.3263C24.5497 16.0639 24.4392 15.7871 24.193 15.6535ZM12.5683 16.6222C10.3528 16.6222 8.54933 14.909 8.54933 12.8044C8.54933 10.6999 10.3528 8.98669 12.5683 8.98669C14.7837 8.98669 16.5872 10.6999 16.5872 12.8044C16.5872 14.909 14.7837 16.6222 12.5683 16.6222Z" fill="#838383"/>
</svg>
