<svg width="172" height="219" viewBox="0 0 172 219" fill="none" xmlns="http://www.w3.org/2000/svg">
<path d="M156.25 23.4375H132.812V15.625C132.8 11.4848 131.15 7.5177 128.222 4.59012C125.295 1.66254 121.328 0.0123651 117.188 0H54.6875C50.5473 0.0123651 46.5802 1.66254 43.6526 4.59012C40.725 7.5177 39.0749 11.4848 39.0625 15.625V23.4375H15.625C11.4848 23.4499 7.5177 25.1 4.59012 28.0276C1.66254 30.9552 0.0123651 34.9223 0 39.0625V203.125C0.0123651 207.265 1.66254 211.232 4.59012 214.16C7.5177 217.087 11.4848 218.738 15.625 218.75H85.9375V203.125H15.625V39.0625H39.0625V62.5H132.812V39.0625H156.25V125H171.875V39.0625C171.863 34.9223 170.212 30.9552 167.285 28.0276C164.357 25.1 160.39 23.4499 156.25 23.4375ZM117.188 46.875H54.6875V15.625H117.188V46.875Z" fill="#AC2626" fill-opacity="0.3"/>
</svg>
